<?xml version="1.0" standalone="no"?>
<!DOCTYPE svg PUBLIC "-//W3C//DTD SVG 20010904//EN"
 "http://www.w3.org/TR/2001/REC-SVG-20010904/DTD/svg10.dtd">
<svg version="1.0" xmlns="http://www.w3.org/2000/svg"
 width="4000.000000pt" height="3120.000000pt" viewBox="0 0 4000.000000 3120.000000"
 preserveAspectRatio="xMidYMid meet">
<metadata>
Created by potrace 1.15, written by Peter Selinger 2001-2017
</metadata>
<g transform="translate(0.000000,3120.000000) scale(0.100000,-0.100000)"
fill="#000000" stroke="none">
<path d="M19475 27769 c-163 -128 -259 -212 -385 -339 -325 -325 -526 -662
-600 -1010 -32 -146 -39 -395 -15 -545 49 -313 181 -642 413 -1030 105 -174
520 -801 706 -1065 81 -114 115 -171 112 -185 -2 -11 -36 -112 -75 -224 -131
-383 -190 -673 -198 -976 -9 -351 47 -628 189 -938 17 -37 33 -66 34 -64 2 2
-5 44 -16 93 -79 363 -30 804 140 1236 48 121 198 428 210 428 12 0 173 -331
223 -460 81 -209 135 -415 158 -614 17 -144 6 -455 -20 -576 -11 -52 -19 -95
-17 -97 5 -5 82 166 110 245 33 94 71 242 93 367 27 159 25 491 -6 660 -45
256 -124 528 -252 872 l-23 63 20 27 c248 339 759 1102 888 1327 414 720 470
1279 186 1848 -166 332 -462 664 -867 971 -34 26 -64 47 -67 47 -3 0 13 -28
35 -62 57 -88 172 -326 208 -431 86 -248 115 -428 115 -712 0 -229 -9 -322
-55 -550 -63 -313 -288 -899 -614 -1595 -48 -102 -91 -197 -97 -212 -5 -16
-13 -28 -18 -28 -15 0 -352 763 -487 1104 -149 378 -227 642 -270 916 -28 179
-25 582 5 746 49 270 140 511 280 743 54 91 54 91 50 91 -2 -1 -43 -33 -93
-71z"/>
<path d="M15785 26705 c482 -275 817 -679 1028 -1242 98 -260 172 -634 256
-1293 41 -315 83 -702 77 -707 -12 -13 -796 549 -1106 792 -360 284 -529 456
-710 725 -257 382 -387 809 -390 1280 l-1 65 -35 -85 c-19 -47 -57 -150 -84
-230 -221 -651 -219 -1217 6 -1657 64 -124 113 -197 210 -313 92 -109 138
-151 268 -238 258 -176 648 -387 1386 -755 300 -149 546 -272 548 -273 2 -1
21 -89 42 -196 93 -462 235 -834 433 -1136 146 -221 346 -426 549 -563 l63
-43 -61 70 c-335 383 -503 845 -550 1517 -3 53 -3 97 2 97 26 0 280 -173 437
-298 344 -274 598 -617 713 -960 15 -45 28 -81 30 -80 1 2 -2 43 -7 91 -40
392 -212 786 -496 1132 -150 184 -390 413 -606 580 l-77 60 5 125 c20 433 26
662 32 1125 8 698 -9 1002 -68 1190 -80 260 -202 460 -398 655 -268 267 -615
440 -1088 544 -124 28 -336 62 -438 71 l-70 7 100 -57z"/>
<path d="M24205 26753 c-630 -79 -1087 -251 -1424 -537 -266 -225 -470 -591
-516 -928 -20 -149 -35 -459 -35 -738 0 -329 30 -1279 45 -1442 l6 -57 -118
-94 c-638 -511 -975 -1030 -1057 -1625 -22 -158 -20 -170 15 -67 42 126 137
317 215 432 189 278 465 534 813 752 63 39 118 71 122 71 4 0 6 -39 3 -87 -39
-655 -208 -1129 -535 -1502 l-83 -94 50 33 c359 243 632 584 798 996 88 222
168 506 217 777 l23 128 540 268 c960 477 1395 728 1569 904 427 432 562 965
421 1657 -42 204 -136 504 -213 674 l-26 58 -2 -158 c-6 -516 -185 -976 -551
-1418 -192 -231 -508 -495 -1107 -923 -353 -252 -540 -376 -543 -360 -4 20 64
617 99 867 100 717 181 1032 359 1395 119 245 237 415 408 589 161 163 322
284 515 387 96 51 95 55 -8 42z"/>
<path d="M13305 24018 c-241 -27 -673 -146 -895 -247 l-45 -21 80 0 c609 -2
1185 -251 1645 -709 229 -229 539 -633 996 -1300 78 -113 140 -207 140 -208
-2 -3 -511 53 -656 72 -593 76 -1014 152 -1225 221 -623 205 -1064 556 -1359
1079 -60 107 -62 106 -46 -25 87 -701 311 -1220 668 -1544 331 -299 686 -411
1387 -435 313 -11 486 -4 1398 55 l238 15 22 -28 c143 -184 462 -516 627 -653
280 -233 596 -393 915 -464 90 -20 279 -48 312 -45 4 0 -35 16 -87 35 -403
147 -766 443 -1067 870 -79 112 -183 276 -183 288 0 15 327 -15 500 -45 445
-79 809 -242 1090 -490 100 -89 102 -84 9 42 -140 189 -303 346 -504 481 -311
210 -656 343 -1158 447 -104 22 -190 41 -192 43 -2 1 -107 232 -235 513 -268
589 -305 666 -398 835 -259 473 -519 789 -804 976 -178 118 -395 201 -613 235
-131 20 -411 24 -560 7z"/>
<path d="M26190 24024 c-14 -3 -65 -12 -113 -20 -296 -49 -620 -222 -835 -447
-206 -217 -473 -698 -1169 -2105 -1 -2 -75 -19 -166 -37 -729 -148 -1174 -365
-1537 -752 -77 -82 -168 -199 -215 -278 -13 -22 0 -13 46 31 352 332 853 517
1517 559 56 4 102 4 102 2 0 -9 -100 -168 -158 -252 -159 -228 -400 -487 -578
-621 -170 -128 -337 -219 -526 -289 -51 -19 -89 -34 -85 -34 33 -3 223 25 314
45 437 97 814 325 1199 728 102 106 256 283 335 384 l26 34 284 -16 c156 -9
437 -25 624 -36 187 -11 374 -22 415 -24 114 -6 541 12 692 29 302 33 487 82
678 179 157 80 262 157 395 290 341 342 546 859 620 1561 l6 60 -57 -105
c-202 -377 -496 -669 -884 -880 -370 -200 -720 -292 -1525 -400 -228 -30 -848
-101 -851 -97 -3 3 364 523 513 728 285 388 475 622 638 784 459 458 1030 702
1654 705 l76 1 -85 35 c-215 88 -511 174 -736 214 -93 17 -169 22 -354 25
-129 2 -246 1 -260 -1z"/>
<path d="M19930 21095 c-479 -55 -994 -266 -1403 -574 -581 -438 -874 -929
-958 -1606 -19 -149 -16 -466 5 -610 59 -408 221 -772 493 -1110 402 -500 979
-789 1642 -823 565 -29 1027 108 1567 464 682 449 1053 1020 1139 1754 58 495
-74 1031 -363 1465 -394 594 -934 944 -1585 1030 -167 22 -393 26 -537 10z
m265 -194 c579 -98 1001 -342 1387 -801 220 -261 390 -591 473 -920 89 -353
94 -683 14 -1045 -117 -532 -444 -1010 -894 -1308 -230 -152 -508 -252 -795
-287 -125 -15 -402 -12 -537 5 -756 99 -1412 576 -1759 1280 -155 317 -224
620 -224 991 0 376 65 682 210 982 106 219 231 392 417 573 314 307 632 472
1039 539 160 26 489 22 669 -9z"/>
<path d="M12345 20215 c-470 -75 -905 -361 -1336 -880 -85 -102 -172 -215
-166 -215 2 0 46 26 98 57 228 138 470 226 764 280 79 14 151 18 345 18 448
-1 681 -54 1300 -300 364 -144 1090 -461 1090 -475 0 -4 -57 -33 -127 -65
-941 -431 -1434 -623 -1758 -685 -496 -94 -934 -55 -1354 122 -93 39 -244 119
-310 164 -19 13 -37 22 -39 19 -5 -4 54 -81 172 -225 101 -122 345 -365 458
-454 274 -215 554 -349 844 -402 132 -25 401 -25 530 -1 221 41 426 114 679
242 225 113 396 222 895 567 239 165 482 332 539 371 l104 71 61 -23 c859
-327 1459 -355 2048 -98 65 28 116 52 114 54 -1 2 -45 -6 -97 -17 -387 -82
-820 -29 -1264 155 -108 44 -405 195 -405 205 0 10 285 151 385 191 198 78
377 130 570 166 78 14 151 18 335 18 205 0 249 -3 342 -23 59 -12 115 -24 125
-27 64 -18 -185 91 -282 123 -238 80 -436 107 -720 99 -213 -5 -378 -30 -625
-92 -128 -32 -409 -121 -541 -171 l-46 -18 -201 132 c-520 342 -1104 701
-1414 871 -296 162 -434 215 -641 245 -125 19 -359 19 -472 1z"/>
<path d="M27215 20224 c-125 -18 -266 -53 -350 -86 -271 -106 -867 -458 -1727
-1020 -125 -81 -232 -148 -237 -148 -5 0 -51 16 -103 36 -219 83 -515 165
-763 211 -138 25 -170 28 -400 28 -219 0 -265 -3 -375 -24 -155 -28 -366 -97
-485 -156 -49 -25 -81 -43 -70 -39 11 3 65 15 120 27 84 17 137 21 335 21 203
1 252 -2 359 -22 259 -47 533 -142 809 -280 72 -36 132 -69 132 -72 0 -9 -330
-173 -430 -213 -438 -177 -865 -228 -1244 -146 -49 10 -91 17 -93 15 -5 -5
119 -60 222 -99 337 -128 728 -159 1125 -91 197 34 501 122 791 230 l76 28
204 -139 c112 -76 328 -224 479 -330 465 -324 606 -413 857 -541 510 -259 916
-322 1342 -209 398 106 789 381 1152 810 82 97 189 234 189 242 0 5 -56 -28
-103 -60 -15 -10 -91 -49 -170 -87 -448 -213 -914 -263 -1453 -155 -288 58
-841 269 -1529 585 -110 50 -230 105 -267 122 -38 17 -68 34 -68 38 0 14 679
310 1060 462 437 174 695 252 970 294 166 26 565 26 705 1 294 -54 544 -147
773 -286 45 -28 82 -48 82 -45 0 8 -82 114 -160 209 -396 477 -807 763 -1235
861 -104 23 -145 27 -305 30 -102 1 -198 0 -215 -2z"/>
<path d="M17350 17585 c-219 -31 -413 -92 -620 -197 -335 -169 -632 -422 -978
-830 l-124 -148 -52 5 c-28 3 -332 24 -676 47 l-625 41 -280 -12 c-503 -20
-758 -70 -1031 -201 -158 -76 -275 -160 -410 -295 -264 -264 -442 -622 -548
-1102 -29 -132 -63 -342 -71 -443 l-6 -75 49 91 c284 525 725 881 1347 1086
317 104 732 176 1640 283 199 23 255 28 255 20 0 -9 -284 -428 -423 -624 -335
-472 -582 -773 -782 -954 -459 -415 -930 -618 -1475 -636 l-185 -6 130 -51
c252 -100 518 -174 755 -211 140 -22 482 -24 605 -4 328 52 590 175 827 388
106 95 149 145 243 288 169 256 396 678 755 1400 l248 500 151 28 c853 160
1377 463 1751 1011 32 48 30 47 -66 -39 -360 -317 -836 -494 -1438 -535 -77
-5 -142 -7 -144 -5 -12 11 175 292 292 440 162 204 381 407 571 531 102 66
265 147 380 190 100 37 89 40 -65 19z"/>
<path d="M22570 17564 c386 -141 715 -403 1019 -809 96 -128 236 -343 229
-350 -2 -3 -69 0 -147 5 -634 43 -1124 232 -1474 569 l-69 66 39 -63 c155
-247 420 -497 697 -656 270 -156 666 -284 1133 -368 l72 -13 295 -590 c365
-731 542 -1056 713 -1318 87 -132 147 -202 251 -293 408 -357 917 -469 1567
-344 186 36 544 148 695 218 l45 20 -148 1 c-492 3 -966 180 -1387 519 -272
219 -568 569 -999 1181 -276 392 -361 521 -343 521 26 0 443 -47 667 -76 492
-62 942 -143 1165 -211 671 -203 1120 -552 1419 -1103 l52 -95 -6 60 c-45 426
-141 786 -290 1090 -211 429 -517 704 -942 844 -227 76 -427 105 -833 123
-264 11 -290 10 -635 -15 -369 -27 -556 -40 -844 -56 l-164 -10 -21 27 c-91
117 -242 289 -351 401 -438 450 -857 681 -1351 746 -158 21 -163 19 -54 -21z"/>
<path d="M18249 16499 c-231 -159 -443 -386 -584 -623 -185 -314 -324 -713
-403 -1161 l-18 -100 -569 -285 c-1029 -515 -1389 -724 -1571 -912 -274 -284
-415 -602 -444 -1003 -25 -362 64 -825 246 -1268 l33 -82 1 80 c3 577 209
1099 611 1555 162 183 565 506 1169 936 362 259 430 304 430 291 0 -7 -16
-154 -35 -327 -64 -567 -126 -985 -191 -1287 -161 -754 -558 -1321 -1144
-1638 l-105 -56 65 6 c231 23 524 82 726 146 359 115 603 256 824 478 321 322
454 681 491 1326 13 230 9 396 -25 945 -14 217 -30 489 -36 604 l-12 209 34
26 c220 171 526 461 655 621 241 299 395 615 462 946 19 94 44 285 38 291 -2
1 -16 -37 -31 -85 -59 -185 -205 -444 -341 -608 -131 -156 -302 -316 -485
-451 -114 -84 -320 -216 -327 -209 -8 7 15 294 33 416 71 495 251 911 514
1193 39 42 70 77 68 77 -3 0 -38 -23 -79 -51z"/>
<path d="M21715 16479 c330 -346 515 -836 554 -1469 5 -80 8 -147 6 -149 -7
-7 -249 151 -362 235 -234 176 -438 385 -573 587 -77 116 -170 302 -216 432
l-35 100 6 -70 c35 -419 214 -830 521 -1195 141 -169 382 -397 586 -555 l78
-60 -5 -65 c-24 -307 -48 -1285 -41 -1625 9 -442 24 -585 83 -770 227 -716
877 -1137 1928 -1250 l60 -6 -110 61 c-383 215 -665 504 -869 890 -162 308
-264 643 -345 1140 -56 341 -161 1204 -148 1217 10 9 562 -378 902 -633 511
-383 717 -583 930 -904 245 -369 364 -751 369 -1177 0 -84 2 -153 3 -153 1 0
24 57 51 128 327 830 319 1485 -22 1997 -61 92 -146 193 -224 267 -181 171
-601 411 -1557 890 l-539 270 -42 207 c-109 543 -260 919 -498 1236 -86 114
-263 288 -388 381 -164 122 -186 131 -103 43z"/>
<path d="M19622 15923 c-91 -200 -150 -402 -178 -617 -23 -176 -15 -462 19
-656 41 -234 129 -543 234 -822 l17 -46 -266 -399 c-146 -219 -317 -472 -378
-563 -358 -529 -549 -955 -601 -1345 -15 -116 -6 -395 16 -495 80 -361 274
-690 594 -1010 142 -142 459 -410 485 -410 3 0 -13 28 -35 63 -67 102 -165
313 -213 457 -84 253 -112 457 -103 759 6 204 20 317 63 511 70 313 253 795
557 1470 139 309 149 330 157 330 15 0 346 -742 478 -1071 163 -407 240 -663
284 -944 31 -200 31 -557 0 -727 -52 -283 -151 -542 -293 -770 -54 -86 -54
-87 36 -19 375 281 668 602 834 912 294 551 262 1098 -105 1779 -98 183 -185
319 -457 718 -134 196 -304 446 -377 555 l-135 198 24 62 c62 162 170 495 199
612 64 265 76 360 76 595 0 270 -31 460 -110 682 -28 79 -105 250 -110 245 -2
-2 6 -45 17 -97 26 -121 37 -423 20 -566 -25 -212 -84 -433 -173 -654 -53
-131 -191 -414 -206 -424 -11 -7 -146 265 -205 414 -141 355 -205 718 -179
1018 7 75 21 177 32 226 11 49 18 91 16 93 -1 2 -17 -27 -34 -64z"/>
<path d="M14875 6174 c-71 -25 -184 -64 -251 -87 l-121 -42 15 -43 c11 -34 18
-42 31 -36 35 15 108 27 132 21 14 -4 31 -18 37 -32 9 -19 12 -345 12 -1291
l0 -1265 87 3 88 3 42 115 c23 63 44 124 47 134 4 16 13 8 50 -41 114 -151
326 -241 592 -250 224 -8 368 17 519 92 154 76 244 167 315 317 72 155 102
322 101 573 0 303 -59 502 -198 670 -194 235 -570 335 -883 235 -122 -40 -231
-100 -296 -165 -33 -33 -68 -71 -77 -85 -15 -23 -16 18 -16 598 l-1 622 -47 0
c-30 -1 -97 -18 -178 -46z m927 -1072 c239 -67 368 -276 398 -644 20 -251 -17
-503 -100 -676 -89 -186 -233 -272 -455 -272 -161 0 -255 40 -376 160 -50 50
-85 94 -103 134 -59 126 -59 124 -63 504 -3 238 -1 370 7 407 37 177 211 353
396 400 74 18 203 13 296 -13z"/>
<path d="M29762 6132 l-243 -87 6 -35 c10 -50 11 -51 57 -34 60 21 111 18 134
-7 18 -20 19 -45 22 -485 2 -255 2 -464 0 -464 -2 0 -37 33 -78 73 -117 112
-239 163 -445 187 -419 49 -777 -163 -900 -532 -70 -211 -74 -543 -9 -796 81
-322 304 -532 617 -582 110 -18 328 -8 431 20 167 45 305 139 402 274 l21 30
7 -77 c3 -42 9 -111 12 -153 l7 -76 36 5 c20 3 143 16 274 28 l237 23 0 43 0
43 -70 0 c-92 0 -148 22 -166 66 -12 28 -14 248 -14 1329 l0 1295 -47 -1 c-34
0 -121 -26 -291 -87z m-407 -1017 c89 -24 152 -62 236 -145 88 -87 124 -153
139 -255 13 -94 13 -634 -1 -732 -20 -148 -90 -272 -206 -368 -91 -75 -152
-97 -292 -103 -174 -7 -280 24 -380 114 -95 85 -153 199 -193 378 -21 90 -23
127 -23 341 0 216 3 249 23 330 76 300 261 451 557 454 45 1 107 -6 140 -14z"/>
<path d="M7485 6188 c-289 -17 -561 -114 -749 -266 -170 -139 -334 -395 -401
-627 -52 -181 -60 -250 -60 -525 0 -284 15 -396 75 -580 159 -486 486 -757
993 -820 146 -19 509 -8 652 19 197 37 376 109 549 221 l95 61 3 457 c3 406 5
461 20 495 22 49 80 76 161 77 l58 0 -3 38 -3 37 -490 0 -490 0 -3 -42 -3 -43
77 0 c113 0 199 -17 235 -47 65 -55 64 -46 67 -509 l3 -421 -33 -28 c-148
-126 -537 -198 -811 -150 -328 57 -567 278 -686 633 -61 184 -76 295 -76 597
0 216 4 288 18 362 52 275 150 483 300 641 118 122 254 195 441 233 87 18 125
20 276 16 208 -6 287 -24 424 -95 175 -92 287 -236 326 -420 l16 -77 57 -3 57
-3 0 381 0 380 -70 0 -70 0 0 -99 c0 -55 -3 -106 -6 -115 -10 -26 -71 -20
-107 10 -48 40 -194 109 -302 143 -202 62 -348 81 -540 69z"/>
<path d="M24580 6184 c-350 -64 -539 -149 -728 -328 -249 -235 -375 -563 -389
-1012 -11 -338 42 -615 162 -856 130 -258 305 -425 555 -528 272 -112 671
-133 970 -50 164 45 359 167 469 292 80 90 158 242 176 341 l7 37 -70 0 -70 0
-50 -102 c-86 -178 -176 -267 -357 -354 -147 -71 -248 -96 -406 -101 -213 -8
-364 25 -511 112 -241 141 -397 395 -461 750 -18 103 -22 158 -22 385 0 235 2
277 22 375 85 417 287 701 581 814 129 49 238 64 435 59 150 -5 184 -9 262
-32 49 -15 115 -41 147 -58 176 -94 304 -268 336 -459 l7 -44 53 -3 52 -3 0
381 0 381 -67 -3 -68 -3 -5 -110 c-5 -109 -5 -110 -31 -113 -17 -2 -53 14
-110 49 -104 65 -241 123 -368 156 -84 22 -120 26 -296 28 -110 2 -211 1 -225
-1z"/>
<path d="M33596 6172 c-3 -5 -49 -125 -102 -268 -101 -272 -427 -1150 -569
-1534 -46 -124 -145 -389 -219 -590 -75 -200 -136 -368 -136 -372 0 -4 42 -8
93 -8 l93 0 166 448 c92 246 239 641 326 877 88 237 228 612 310 835 83 223
167 448 186 500 20 52 36 101 36 108 0 14 -175 18 -184 4z"/>
<path d="M17145 6021 c-43 -19 -100 -78 -116 -118 -5 -13 -9 -49 -9 -79 0
-120 83 -201 215 -211 76 -6 135 23 183 90 82 114 37 269 -94 323 -46 19 -131
17 -179 -5z"/>
<path d="M18353 5677 l-133 -91 0 -168 0 -167 -152 -3 -153 -3 0 -75 0 -75
153 -3 152 -3 0 -642 c0 -705 2 -725 60 -844 50 -102 154 -176 305 -218 91
-25 312 -31 399 -11 88 21 179 69 234 124 50 49 98 145 107 215 l7 47 -64 0
-64 0 -12 -48 c-19 -71 -76 -141 -147 -177 -54 -28 -66 -30 -164 -30 -89 0
-112 3 -146 22 -71 38 -105 88 -130 195 -12 52 -15 174 -15 716 l0 652 270 0
270 0 0 80 0 80 -270 0 -270 0 0 260 0 260 -52 -1 c-50 -1 -61 -7 -185 -92z"/>
<path d="M5695 5626 c-233 -120 -1095 -559 -1432 -729 l-263 -132 0 -65 0 -65
253 -127 c138 -70 394 -200 567 -288 714 -366 1058 -540 1064 -540 4 0 5 50 4
111 l-3 112 -35 19 c-44 23 -691 358 -1145 592 -187 96 -341 179 -342 183 -2
5 122 73 274 153 153 79 314 162 358 185 44 23 253 131 465 240 212 109 395
204 408 212 21 13 22 20 22 123 0 61 -3 110 -7 109 -5 0 -89 -42 -188 -93z"/>
<path d="M34100 5610 c0 -103 1 -110 23 -124 12 -7 186 -98 387 -201 201 -104
406 -209 455 -235 50 -25 219 -113 378 -195 158 -82 286 -153 284 -158 -1 -4
-160 -89 -352 -188 -193 -99 -521 -269 -730 -377 -209 -108 -393 -203 -410
-212 l-30 -15 -3 -112 c-3 -107 1 -125 23 -104 6 4 415 212 910 461 495 249
915 462 933 472 32 20 33 22 30 81 l-3 62 -125 63 c-69 35 -433 219 -810 409
-377 190 -745 377 -819 414 -73 38 -135 69 -137 69 -2 0 -4 -49 -4 -110z"/>
<path d="M9700 5280 c-279 -27 -495 -128 -578 -269 -24 -41 -27 -56 -27 -138
0 -77 3 -96 21 -120 31 -41 71 -58 141 -58 51 0 66 4 87 24 37 35 50 83 43
169 -7 93 2 113 71 159 70 46 152 71 256 79 225 18 421 -66 490 -209 31 -63
48 -180 44 -301 l-3 -90 -161 -28 c-652 -111 -1004 -318 -1065 -627 -45 -231
94 -434 341 -497 102 -26 313 -15 450 23 172 48 254 92 369 198 32 30 61 55
65 55 3 0 6 -38 6 -84 0 -102 20 -138 95 -176 73 -36 216 -41 317 -10 129 39
188 76 188 118 0 21 -3 24 -27 18 -60 -13 -123 -18 -147 -12 -53 13 -53 12
-59 676 -6 666 -5 660 -63 779 -16 33 -56 85 -98 127 -161 161 -417 227 -756
194z m550 -1173 l0 -283 -55 -66 c-68 -83 -210 -179 -310 -211 -103 -33 -279
-32 -352 2 -108 48 -161 149 -150 283 19 228 243 395 702 523 66 19 130 34
143 34 l22 1 0 -283z"/>
<path d="M12115 5284 c-168 -27 -347 -137 -458 -284 l-26 -35 -1 148 0 147
-43 0 c-26 0 -100 -21 -197 -56 -85 -31 -197 -70 -248 -87 l-93 -32 6 -40 c7
-49 9 -51 40 -37 13 6 46 14 73 18 42 5 53 3 71 -15 21 -21 21 -22 21 -716 0
-593 -2 -700 -15 -724 -24 -47 -87 -71 -183 -71 l-82 0 0 -50 0 -50 466 0 465
0 -3 48 -3 47 -85 6 c-110 7 -164 33 -180 86 -8 27 -10 196 -8 573 5 586 5
586 68 715 124 255 477 336 673 156 53 -49 83 -114 97 -208 5 -38 10 -317 10
-638 0 -523 -1 -573 -18 -605 -24 -50 -88 -80 -169 -80 l-63 0 0 -50 0 -50
430 0 430 0 0 50 0 50 -57 0 c-75 0 -125 14 -163 47 l-31 26 3 571 3 571 27
74 c82 226 271 357 487 337 161 -14 286 -126 320 -284 16 -79 15 -1238 -2
-1272 -20 -41 -81 -64 -179 -68 l-88 -4 0 -49 0 -49 460 0 460 0 0 50 0 50
-67 0 c-89 0 -133 13 -169 51 l-29 30 -5 647 c-6 728 -3 694 -85 817 -82 122
-219 201 -402 232 -83 14 -115 15 -208 5 -118 -12 -226 -43 -292 -85 -82 -52
-162 -128 -210 -199 l-49 -73 -36 76 c-66 137 -189 231 -347 265 -69 15 -264
26 -316 18z"/>
<path d="M20360 5283 c-84 -9 -234 -44 -307 -72 -119 -47 -200 -98 -289 -186
-90 -89 -150 -182 -189 -293 -50 -143 -59 -204 -59 -407 0 -177 2 -198 28
-300 47 -184 112 -302 229 -417 103 -101 225 -164 417 -216 88 -24 111 -26
315 -26 238 -1 300 9 458 68 142 53 303 174 378 282 191 278 223 772 70 1089
-108 224 -292 371 -551 440 -144 38 -353 54 -500 38z m329 -177 c202 -55 355
-225 415 -461 42 -166 45 -417 7 -600 -69 -336 -289 -535 -591 -535 -325 1
-542 191 -617 540 -26 120 -26 430 0 549 61 284 225 467 462 516 83 17 244 13
324 -9z"/>
<path d="M26885 5280 c-524 -56 -820 -367 -842 -880 -22 -511 176 -843 583
-979 196 -65 510 -79 718 -32 295 68 518 249 615 499 89 233 99 567 24 807
-64 203 -177 346 -362 455 -75 44 -245 104 -341 119 -93 16 -302 21 -395 11z
m299 -165 c235 -45 405 -239 462 -530 25 -125 25 -395 0 -520 -24 -122 -67
-229 -125 -312 -63 -90 -128 -146 -216 -188 -95 -46 -173 -59 -303 -52 -164 8
-260 48 -370 151 -154 147 -222 349 -222 667 0 288 61 480 201 633 121 133
352 194 573 151z"/>
<path d="M31313 5275 c-397 -57 -660 -304 -745 -700 -14 -68 -19 -129 -19
-246 1 -568 266 -890 789 -960 122 -16 336 -6 436 20 289 76 480 299 531 619
l7 43 -52 -3 -52 -3 -25 -84 c-64 -223 -200 -368 -408 -434 -58 -18 -93 -22
-210 -22 -120 0 -149 3 -207 23 -184 64 -346 251 -408 473 -27 98 -46 299 -34
364 l9 50 704 3 704 2 -6 128 c-8 179 -43 292 -130 422 -67 101 -169 185 -291
240 -144 65 -396 93 -593 65z m321 -150 c82 -17 164 -64 213 -120 75 -87 162
-305 163 -407 l0 -28 -535 0 c-485 0 -535 2 -535 16 0 41 35 147 77 232 121
247 354 363 617 307z"/>
<path d="M17115 5182 c-132 -47 -242 -87 -244 -89 -2 -2 1 -21 8 -43 13 -44
35 -51 81 -25 38 22 78 18 105 -10 l25 -24 0 -697 0 -696 -22 -30 c-32 -46
-90 -68 -180 -68 l-78 0 0 -50 0 -50 466 0 465 0 -3 48 -3 47 -92 6 c-74 5
-99 10 -126 29 -72 49 -67 -13 -67 909 l0 831 -47 -1 c-34 0 -121 -27 -288
-87z"/>
</g>
</svg>
